<svg xmlns="http://www.w3.org/2000/svg" viewBox="0 0 1024 1024" role="img" aria-label="California Settlement Calculator logo">
<rect width="1024" height="1024" fill="#ffffff"/>
<g transform="translate(0,1024) scale(0.1,-0.1)"
fill="#00325f" stroke="none">
<path d="M2270 9735 c-428 -63 -825 -270 -1092 -568 -239 -267 -371 -536 -440
-897 l-22 -115 -3 -2765 c-3 -1823 0 -2810 6 -2897 35 -453 223 -850 553
-1168 276 -267 574 -419 978 -502 79 -16 274 -17 2780 -20 1890 -3 2729 -1
2809 7 641 61 1187 444 1471 1032 54 111 125 332 152 470 l22 113 3 2775 c3
1871 1 2817 -6 2903 -70 851 -681 1506 -1523 1631 -94 14 -402 16 -2854 15
-2146 -1 -2768 -4 -2834 -14z m3005 -590 c79 -38 149 -109 188 -193 30 -62 32
-75 32 -172 0 -93 -3 -112 -27 -162 l-26 -56 81 -6 c45 -3 197 -11 337 -16
347 -14 814 -35 1367 -61 l462 -22 33 33 c41 41 85 60 140 60 91 -1 165 -60
189 -152 11 -40 10 -55 -4 -101 -9 -29 -28 -64 -42 -77 -14 -13 -25 -27 -25
-32 0 -5 97 -190 216 -411 119 -221 249 -463 289 -537 40 -74 94 -176 121
-227 46 -87 51 -92 87 -98 24 -5 43 -16 54 -31 14 -22 14 -28 -2 -76 -85 -261
-307 -458 -605 -540 -75 -20 -107 -23 -270 -23 -161 1 -196 4 -270 24 -272 73
-477 240 -586 476 -54 116 -47 159 25 171 35 6 38 9 128 182 51 98 187 355
303 572 116 217 225 423 242 457 l31 61 -29 35 -29 34 -485 7 c-813 12 -1875
24 -1877 22 -6 -6 115 -1719 124 -1771 l8 -40 365 -7 c468 -9 738 -23 820 -43
112 -27 275 -114 358 -191 83 -76 108 -111 471 -646 145 -214 266 -388 270
-388 4 0 15 27 25 61 35 125 90 202 176 243 41 19 62 21 225 21 199 0 290 -13
371 -51 58 -28 118 -88 141 -143 22 -49 21 -138 -2 -181 -51 -101 -83 -111
-450 -141 -82 -7 -154 -15 -158 -19 -5 -4 33 -31 85 -60 51 -29 163 -91 248
-139 124 -69 169 -100 225 -156 77 -77 133 -174 161 -280 25 -98 36 -404 37
-1045 0 -653 -9 -866 -43 -990 -62 -222 -247 -427 -454 -505 -89 -33 -430
-118 -689 -170 -232 -46 -385 -69 -549 -81 l-98 -7 -25 29 c-14 16 -183 245
-376 509 -192 264 -373 502 -402 529 -29 27 -81 63 -117 80 l-65 31 -879 3
c-784 2 -885 1 -935 -14 -109 -31 -176 -88 -299 -254 -85 -114 -293 -397 -531
-722 -67 -93 -132 -173 -143 -179 -39 -21 -327 12 -623 72 -235 47 -566 127
-680 163 -239 76 -430 283 -495 535 -32 126 -42 361 -42 956 1 596 13 947 37
1045 29 119 79 207 169 295 73 71 104 92 315 210 129 71 236 136 239 143 2 8
-10 12 -40 12 -24 0 -134 9 -244 20 -226 23 -265 36 -310 102 -23 32 -29 54
-32 107 -3 57 0 73 25 121 68 130 213 180 519 180 228 0 309 -52 372 -238 15
-45 31 -83 37 -84 5 -2 121 161 257 362 438 646 436 643 588 742 95 61 205
104 317 123 89 14 650 35 964 35 l158 0 5 33 c3 17 7 68 10 112 3 44 28 393
55 775 28 382 53 741 57 798 l7 102 -264 -5 c-145 -3 -678 -10 -1184 -16
l-920 -10 -33 -36 -33 -35 126 -236 c69 -131 221 -417 338 -637 l212 -400 37
-3 c77 -6 79 -54 9 -195 -96 -195 -241 -326 -458 -412 -222 -89 -538 -87 -768
4 -217 87 -390 253 -471 452 -39 96 -30 149 26 149 37 0 44 7 90 100 45 89 56
111 410 769 l222 413 -26 27 c-96 100 -62 262 66 316 73 30 154 12 215 -47
l32 -31 363 17 c200 9 498 23 663 31 165 8 473 21 685 30 212 8 421 18 466 21
l81 6 -26 61 c-22 53 -26 77 -26 162 0 87 4 107 27 157 31 67 105 149 166 185
71 42 119 53 217 50 75 -3 100 -8 150 -32z m719 -6835 c26 -18 82 -91 188
-249 83 -123 146 -222 141 -220 -6 2 -93 54 -194 114 l-183 110 -821 3 c-582
2 -831 0 -858 -8 -22 -6 -120 -61 -219 -121 -99 -60 -176 -104 -172 -97 26 45
280 417 298 437 11 13 39 32 61 42 38 18 80 19 881 16 l840 -2 38 -25z"/>
<path d="M5010 8973 c-75 -38 -112 -93 -118 -172 -5 -71 10 -121 51 -167 49
-57 99 -77 177 -72 77 4 124 29 165 88 96 139 4 336 -162 348 -49 3 -67 -1
-113 -25z"/>
<path d="M2302 8038 c-59 -105 -581 -1083 -588 -1100 -6 -17 28 -18 615 -18
342 0 621 3 621 7 0 10 -603 1149 -614 1160 -2 2 -17 -20 -34 -49z"/>
<path d="M7676 7752 c-318 -597 -436 -821 -436 -827 0 -3 279 -5 620 -5 461 0
620 3 620 12 0 6 -83 164 -183 352 -101 188 -240 446 -308 573 -68 128 -126
232 -129 232 -3 0 -86 -151 -184 -337z"/>
<path d="M1654 6763 c55 -103 173 -206 311 -273 132 -64 227 -85 380 -83 211
2 397 72 536 201 62 58 149 161 149 177 0 3 -313 5 -695 5 l-696 0 15 -27z"/>
<path d="M7180 6781 c0 -15 51 -85 98 -134 99 -103 229 -178 377 -218 113 -31
315 -31 430 0 183 49 329 145 432 285 23 32 43 62 43 67 0 5 -294 9 -690 9
-379 0 -690 -4 -690 -9z"/>
<path d="M4540 6254 c-58 -2 -266 -8 -463 -14 -400 -12 -446 -19 -578 -86
-127 -63 -203 -151 -441 -509 -275 -415 -448 -683 -448 -695 0 -5 73 -64 163
-132 257 -193 1067 -849 1067 -865 0 -2 -37 17 -82 41 -101 55 -741 361 -1206
578 -213 99 -350 157 -360 153 -9 -3 -97 -52 -195 -108 -195 -111 -253 -160
-301 -260 -57 -115 -59 -143 -52 -817 6 -677 19 -1014 41 -1104 9 -32 28 -82
43 -110 35 -65 124 -154 187 -188 48 -25 283 -90 710 -197 397 -100 424 -103
477 -58 25 21 106 122 515 643 196 249 296 351 393 403 118 63 76 61 1096 61
902 0 934 -1 996 -20 139 -43 241 -131 422 -364 73 -94 213 -272 311 -396 98
-124 197 -249 219 -278 28 -35 54 -57 83 -68 52 -20 81 -15 503 91 401 100
617 162 665 190 51 30 147 129 173 180 57 114 65 210 82 1015 12 541 7 820
-16 913 -21 88 -61 160 -121 220 -51 51 -101 82 -384 241 l-36 20 -189 -88
c-306 -143 -940 -447 -1199 -575 -132 -65 -241 -118 -242 -117 -2 2 466 393
627 523 148 120 542 429 579 453 l23 16 -102 159 c-57 88 -209 320 -338 515
-261 394 -319 463 -449 533 -120 63 -185 75 -510 87 -283 10 -1457 20 -1663
14z m1895 -298 c96 -22 167 -59 229 -120 53 -53 593 -852 582 -863 -9 -10
-3235 -15 -3783 -6 l-512 8 122 185 c296 447 430 640 476 683 50 47 118 86
186 107 71 22 419 28 1535 25 959 -3 1104 -5 1165 -19z m-4179 -2007 c242
-104 1053 -477 1323 -607 l103 -50 -173 -116 c-96 -64 -183 -116 -195 -116
-43 0 -1073 209 -1100 223 -39 20 -70 55 -88 99 -24 56 -156 549 -156 580 0
36 32 68 70 68 16 0 113 -36 216 -81z m5956 64 c9 -10 18 -27 22 -38 5 -18
-90 -392 -140 -550 -23 -72 -60 -121 -108 -144 -23 -10 -275 -65 -565 -122
-414 -81 -530 -100 -550 -92 -30 11 -340 215 -341 224 0 6 209 103 1050 486
340 155 567 253 586 253 17 0 38 -8 46 -17z"/>
</g>
</svg>
